<svg id="Layer_1" data-name="Layer 1" xmlns="http://www.w3.org/2000/svg" viewBox="0 0 635.42 715.74"><defs><style>.cls-1,.cls-10{fill:#1c2628;}.cls-1,.cls-10,.cls-2{stroke:#1c2628;}.cls-1,.cls-10,.cls-2,.cls-5,.cls-8,.cls-9{stroke-linecap:round;stroke-linejoin:round;}.cls-1,.cls-2,.cls-5,.cls-8{stroke-width:2.13px;}.cls-2,.cls-8,.cls-9{fill:none;}.cls-3{fill:#f1a94f;stroke-miterlimit:10;}.cls-3,.cls-9{stroke:#000;}.cls-4{fill:#faf6eb;}.cls-5,.cls-6{fill:#eba798;}.cls-5{stroke:#fff;}.cls-7{fill:#f7aa9a;}.cls-8{stroke:#faf6eb;}.cls-9{stroke-width:6px;}.cls-10{stroke-width:2.13px;}</style></defs><title>musichpone</title><path class="cls-1" d="M530,654.6c-3.9,39.6-75.5,66.6-171,68.9h-0.4a614.77,614.77,0,0,1-72-2.7c-50.8-4.9-97.2-15.6-134.6-29.8a292.36,292.36,0,0,1-40.7-18.7c-33.6-19-52.8-41.2-50.7-63.3,4.4-45.1,96.6-73.8,212-68.4,10.3,0.5,20.8,1.2,31.4,2.3,51.8,5,99.1,16.1,136.8,30.6C497.5,595.2,532.9,625,530,654.6Z" transform="translate(-31.6 -74.73)"/><path class="cls-2" d="M553.1,623.9c12.2,15,13.4,28.1,12.7,44.9-2.3,54-75.6,65.7-116.5,77.8" transform="translate(-31.6 -74.73)"/><path class="cls-2" d="M145,520.5c-59,9.9-129.9,48.6-108.4,119" transform="translate(-31.6 -74.73)"/><path class="cls-2" d="M406.9,669.7c3.1-4.3,2.6-1.5-1-.7-12.9,2.9-25.8,6.3-38.6,9.7-16.2,4.3-30,14.8-44.9,22.4" transform="translate(-31.6 -74.73)"/><path class="cls-3" d="M486.1,518.3c59.4-63.3-93.6-360.4-188.4-303.2-32.8,15.3-46.2,41.2-59.3,71.7C206.6,403.5,67.2,364.5,63,490.5,55.1,674.4,422.5,653.6,486.1,518.3Z" transform="translate(-31.6 -74.73)"/><path class="cls-3" d="M142.5,302.7c21.8-3.5,42.6-5.7,36.6,25.3-0.8,4.2-6.8,30.4-27.9,33.3C108.4,368.2,99.5,308.6,142.5,302.7Z" transform="translate(-31.6 -74.73)"/><path class="cls-3" d="M207.1,295.9c-9.2,6.5-26.7-2.5-20.9-14.6C190.7,256,240.3,284.5,207.1,295.9Z" transform="translate(-31.6 -74.73)"/><path class="cls-2" d="M215.6,439.8c3.1,7.3,6.3,15.3,4.3,23-1.6,6.4-6.5,11.5-11.4,15.9-2.5,2.2-5.1,4.5-8.3,5.4s-7.1.4-9.2-2.2c-2.3-2.8-1.7-7.1,0-10.3a10.82,10.82,0,0,1,6.2-5.5c4.7-1.4,9.7,2.1,11.6,6.6s1.4,9.6.4,14.4c-4.1,19.6-15.2,36.8-26.1,53.6" transform="translate(-31.6 -74.73)"/><path class="cls-4" d="M158.5,417.1c11.6,1.4,26.2-17.7,9.1-19.6-5.3,1.9-16.2,17.2-10.9,19.2" transform="translate(-31.6 -74.73)"/><path class="cls-5" d="M273.3,288.3c-12.5,2.6-17.5,13.9-11.4,25.7,1.7,3.3,11.7,17.7,20.7,16.1,4.3-.8,18,1.1,15.3-31.6C296.2,285.7,290,284.9,273.3,288.3Z" transform="translate(-31.6 -74.73)"/><path class="cls-5" d="M462.7,477.7c-15.1,50.6-91.1,167-96.5,186.3l-0.8-3.3c-17.1,6-115.2,6.9-147.3-24a34.92,34.92,0,0,1-7.5-10.2l26.6-66.2c-1.6,2.3-17.3-11.6,1-50,5-10.5,15.4-38.9,15.4-38.9,0.8-4.3,3.1-21,5.9-41.4a4.94,4.94,0,0,1-.5-1.1c-8.8-6-41.8-3.6-49.3-29.4a44.87,44.87,0,0,1-1.5-13.9c0.2-6,3.9-8.8,8.1-10a31.75,31.75,0,0,1,11-.8c12.4,0.7,24.5,5.3,36,10.1,0.8,0.3,1.5.7,2.3,1,3.9-28.1,7.6-52.5,8.8-53.8,2-2.2,3.9-4.4,5.8-6.5,6-6.6,12.1-11.6,22.4-7.8a197.07,197.07,0,0,1,19.4,8c13.1,6.3,25,14.3,34.5,26.2,9.4,11.7,17.9,24.3,24.3,37.8a155.09,155.09,0,0,1,12,38.7c1.7,9,2.9,18.4,2.3,27.6a52.51,52.51,0,0,1-.8,6.8,300.31,300.31,0,0,1-7.1,29.8Z" transform="translate(-31.6 -74.73)"/><path class="cls-4" d="M218.1,636.7a34.92,34.92,0,0,1-7.5-10.2l26.6-66.2c-1.6,2.3-17.3-11.6,1-50,5-10.5,15.4-38.9,15.4-38.9,0.8-4.3,3.1-21,5.9-41.4a4.94,4.94,0,0,1-.5-1.1c-8.8-6-41.8-3.6-49.3-29.4,7.3,1.3,15.1,3.7,23.4,6.2,16.6,5,26.6,8,31.9,17.3,6.2,10.8-1.5,16.8,3.6,42.3,1.5,7.7,3,10.9,4.9,22.2,2.2,13,3.2,19.6,1.3,24.5-4.8,12.1-18.9,13.3-18.7,20.9,0.1,4.5,5.1,6.3,10.2,11.1,0,0,13.6,12.6,14.7,35.5C282.4,608.4,244.2,641.8,218.1,636.7Z" transform="translate(-31.6 -74.73)"/><path class="cls-1" d="M395.2,456.2a61.72,61.72,0,0,1-21.3,12.2c-20.9,6.6-42.5-1.7-61-8.9-14.6-5.7-32.2-12.4-36.7-27.3-2.5-8.3.7-13.5-4.1-19.6-5.5-6.8-12.8-4.2-25.8-9.8A61.2,61.2,0,0,1,223.2,385a78.06,78.06,0,0,1-6.8-9.5,31.75,31.75,0,0,1,11-.8c12.4,0.7,24.5,5.3,36,10.1,0.8,0.3,1.5.7,2.3,1,3.9-28.1,7.6-52.5,8.8-53.8,2-2.2,3.9-4.4,5.8-6.5a308.92,308.92,0,0,1,41.9.2c13.1,6.3,25,14.3,34.5,26.2,9.4,11.7,17.9,24.3,24.3,37.8a155.09,155.09,0,0,1,12,38.7C394.6,437.6,395.9,447,395.2,456.2Z" transform="translate(-31.6 -74.73)"/><path class="cls-4" d="M237.6,634.7A162.81,162.81,0,0,0,249.4,623c-31.1-18.8-31.4-34-31.4-34L152,690.9c32.2,12.2,71.1,21.8,113.6,27.4a154.43,154.43,0,0,0-31-49.6C226.6,658.7,229.6,642.7,237.6,634.7Z" transform="translate(-31.6 -74.73)"/><path class="cls-6" d="M278.9,637.6A218.91,218.91,0,0,1,249.4,623a130.41,130.41,0,0,1-11.8,11.7c-8,8-11,24-3,34a151,151,0,0,1,31,49.6q10.35,1.35,21,2.4a592.28,592.28,0,0,0,72,2.7H359l28.1-78.7C387.1,644.8,351,667.4,278.9,637.6Z" transform="translate(-31.6 -74.73)"/><path class="cls-7" d="M400.4,422c2.8-7.5-1.2-19.3-3.4-26.8-12.3-41.2-47.1-61.9-82-82.1-12.1-7-18.9-8.2-29.8,11.6-5.8,10.5-9.6,36.3-1.7,43.5,23.5,21.1,52.6,37.7,68.6,64.3,2.4,4,14.6,40,14.6,40a187.13,187.13,0,0,1,17.4-17.4c8-7,10.3-7.5,11.5-9.2Z" transform="translate(-31.6 -74.73)"/><path class="cls-1" d="M507.3,265.8a6,6,0,0,1-2.6-8l0.2-.3a5.95,5.95,0,1,1,10.6,5.4l-0.2.3A5.92,5.92,0,0,1,507.3,265.8Zm4.4-8.5a3.31,3.31,0,0,0-4.4,1.4l-0.2.3a3.26,3.26,0,0,0,5.8,3l0.2-.3A3.26,3.26,0,0,0,511.7,257.3Z" transform="translate(-31.6 -74.73)"/><path class="cls-1" d="M501,278.1a6,6,0,0,1-2.6-8l0.2-.3a6,6,0,0,1,8-2.6,5.86,5.86,0,0,1,2.6,8l-0.2.3A5.92,5.92,0,0,1,501,278.1Zm4.3-8.5a3.31,3.31,0,0,0-4.4,1.4l-0.2.3a3.31,3.31,0,0,0,1.4,4.4,3.23,3.23,0,0,0,4.4-1.4l0.2-.3A3.1,3.1,0,0,0,505.3,269.6Z" transform="translate(-31.6 -74.73)"/><path class="cls-1" d="M511.9,250.8a8.78,8.78,0,0,1-3.8-11.7l7.3-14.1a8.7,8.7,0,1,1,15.5,7.9h0L523.6,247A8.69,8.69,0,0,1,511.9,250.8Zm14-27.2a6,6,0,0,0-8.1,2.6l-7.3,14.1a6,6,0,1,0,10.7,5.5l7.3-14.1A6,6,0,0,0,525.9,223.6Z" transform="translate(-31.6 -74.73)"/><path class="cls-1" d="M562.2,166.9L413,456.6a17.89,17.89,0,0,1-24.1,7.7L258.4,397.1a17.89,17.89,0,0,1-7.7-24.1l84.6-164.4,9.1-.6L258,375.9a10.57,10.57,0,0,0,4.5,14.1L392,456.6a10.05,10.05,0,0,0,4.8,1.2,10.48,10.48,0,0,0,9.3-5.7L554.7,163.5a11.76,11.76,0,0,0,1-3c0.1,0,.2-0.1.3-0.1,2.8-1.2,5.5-2.5,8.2-3.7A18.7,18.7,0,0,1,562.2,166.9Z" transform="translate(-31.6 -74.73)"/><path class="cls-4" d="M555.6,160.5a11.76,11.76,0,0,1-1,3L406.1,452.1a10.48,10.48,0,0,1-9.3,5.7,10,10,0,0,1-4.8-1.2L262.5,390a10.51,10.51,0,0,1-4.5-14.1l86.4-167.8c20.1-1.4,42-3.9,64.9-7.6C466.7,191.1,519,176.4,555.6,160.5Z" transform="translate(-31.6 -74.73)"/><path class="cls-1" d="M472.7,102.4s-2.8,5.5-3,10.1v0.8a11.49,11.49,0,0,0,6.4,9.8l9.6,4.9a11.24,11.24,0,0,0,8.6.8,15.76,15.76,0,0,0,3.5-1.6c3.9-2.6,6.5-8,6.5-8Z" transform="translate(-31.6 -74.73)"/><path class="cls-5" d="M481.5,407.2c1,5.4-9.6,53.4-23.2,83.1L308.6,518.7a184.16,184.16,0,0,1,12-31c7.2-14.5,17.6-30.2,31.5-38,41-23,72.3-12.1,72.3-12.1s2-17.8,14.7-40.4c0,0,.1-3.8.7-9.5,1.2-11.4,4.4-30,12.9-38.5,18.2-18.2,32.6-14.6,31.6-11.8C485.1,341.2,482.4,404.5,481.5,407.2Z" transform="translate(-31.6 -74.73)"/><path class="cls-5" d="M249.5,314.9c-12.7,2.7-17.8,14.1-11.6,26.2,1.7,3.3,11.9,18.1,21.1,16.4,4.3-.8,18.3,1.1,15.6-32.2C272.8,312.3,266.4,311.4,249.5,314.9Z" transform="translate(-31.6 -74.73)"/><path class="cls-2" d="M358.6,723.5a614.77,614.77,0,0,1-72-2.7c-50.8-4.9-97.2-15.6-134.6-29.8" transform="translate(-31.6 -74.73)"/><path class="cls-2" d="M220.3,596s4.5,14.5,29.1,27,50.1,29.4,86,29.4" transform="translate(-31.6 -74.73)"/><path class="cls-2" d="M470.6,340.8s-3.7,22.6,0,26.2a14.17,14.17,0,0,0,9.1,3.7" transform="translate(-31.6 -74.73)"/><path class="cls-4" d="M425.5,454.8c-14.8,7-22.3-4.7-41.4.3-23.5,6.3-25.5,27.7-45.7,32.8a36.09,36.09,0,0,1-17.9-.2c7.2-14.5,17.6-30.2,31.5-38,41-23,72.3-12.1,72.3-12.1s2-17.8,14.7-40.4c0,0,.1-3.8.7-9.5a46.62,46.62,0,0,1,8.4,21.3C450,426.7,440.8,447.5,425.5,454.8Z" transform="translate(-31.6 -74.73)"/><path class="cls-6" d="M295.5,530.8c-1.3-8,16.2-17.1,30.9-24.7,32.5-16.8,67.6-22.8,72.4-23.6,19.9-3.2,33.1-3,45.3-14.2,7.4-6.7,15.9-19.4,18.5-18.5,4.2,1.5,1.4,28.6-6.7,45.8-18.6,39.7-78.3,46.6-89.1,47.9C335.6,547.4,297.3,542.1,295.5,530.8Z" transform="translate(-31.6 -74.73)"/><line class="cls-2" x1="506.5" y1="225.97" x2="476.3" y2="246.06"/><line class="cls-2" x1="508.3" y1="257.37" x2="476.9" y2="260.97"/><line class="cls-2" x1="474.5" y1="276.37" x2="503.5" y2="307.76"/><line class="cls-2" x1="475.7" y1="308.37" x2="489.9" y2="325.56"/><path class="cls-2" d="M221.3,645.4c-3.6,8.4-6,18-2.9,26.5,2.3,6.5,7.5,11.5,11.9,16.9s8.2,12,7.1,18.9" transform="translate(-31.6 -74.73)"/><path class="cls-2" d="M237.1,684.4c2.9,6,9.1,9.8,11.8,15.8a23.07,23.07,0,0,1,1.7,9.4" transform="translate(-31.6 -74.73)"/><path class="cls-2" d="M268.8,574.5a81.06,81.06,0,0,1-.8,13.9,24.63,24.63,0,0,1-5.6,12.5c-3.3,3.7-7.9,6-12.3,8.2" transform="translate(-31.6 -74.73)"/><path class="cls-2" d="M272.4,597.3a19.66,19.66,0,0,1-7.5,10" transform="translate(-31.6 -74.73)"/><path class="cls-2" d="M246.2,342.2c-0.5-4.4-1-9,.7-13s6.5-7.2,10.6-5.4" transform="translate(-31.6 -74.73)"/><path class="cls-2" d="M443.7,477c-21.1,35.1-41.1,71-59.9,107.4" transform="translate(-31.6 -74.73)"/><line class="cls-2" x1="384.1" y1="472.76" x2="344.1" y2="549.67"/><path class="cls-2" d="M465.5,427c-6.3,26.9-4.6,45.6-28.3,82.9" transform="translate(-31.6 -74.73)"/><path class="cls-1" d="M608.5,119.7c-1.5,11.5-17.9,24.4-44.4,36.9-2.6,1.2-5.4,2.5-8.2,3.7-0.1,0-.2.1-0.3,0.1-36.6,15.9-89,30.7-146.3,40-22.9,3.7-44.8,6.2-64.9,7.6l-9.1.6c-24.3,1.3-45.8,1-63.4-1C240,204.1,221.3,195.3,223,182s23.4-28.5,57.4-42.7c28.5-11.9,65.6-23.1,106.9-31.6,3.3-.7,6.5-1.3,9.8-2,8.2-1.6,16.6-3.1,25.1-4.5,9.2-1.5,18.2-2.8,26.9-3.9,4.8-.6,9.5-1.1,14.1-1.6h0c31.9-3.4,60.5-4.3,83.8-2.8C586.5,95.5,610.4,104.8,608.5,119.7Z" transform="translate(-31.6 -74.73)"/><path class="cls-8" d="M343,188.1c-3,.2-5.9.4-8.8,0.5-9.2.5-18.1,0.8-26.4,0.8a310.6,310.6,0,0,1-33.7-1.7" transform="translate(-31.6 -74.73)"/><path class="cls-8" d="M555.5,138.6c-2.5,1.2-5,2.3-7.6,3.5l-0.5.2" transform="translate(-31.6 -74.73)"/><path class="cls-8" d="M288.1,157.8c27.8-11.6,64.4-22.4,103.2-30.5,3.2-.6,6.3-1.3,9.6-1.9,8-1.5,16.2-3,24.5-4.4,8.8-1.4,17.6-2.7,26.3-3.8,4.4-.6,8.7-1.1,12.8-1.5l1-.1a567.05,567.05,0,0,1,58.5-3.4c7.7,0,15.1.2,21.9,0.6" transform="translate(-31.6 -74.73)"/><path class="cls-2" d="M586.1,75.8c51.2,3.3,82.3,15.3,79.7,34.6-1.9,14.9-23.3,31.7-57.6,47.9-3.4,1.6-7,3.2-10.6,4.8a0.37,0.37,0,0,1-.3.1" transform="translate(-31.6 -74.73)"/><path class="cls-2" d="M229.2,224.6c-41.4-4.6-65.7-16-63.5-33.2s30.4-37,74.4-55.4c37-15.5,85.2-29.9,138.7-41,4.2-.9,8.5-1.7,12.7-2.6,10.7-2.1,21.6-4,32.6-5.8,11.9-1.9,23.6-3.6,35-5" transform="translate(-31.6 -74.73)"/><path class="cls-2" d="M527.1,757.7C471,772.6,414.6,792.5,356.6,789" transform="translate(-31.6 -74.73)"/><circle class="cls-3" cx="383.8" cy="188.66" r="46.5"/><path class="cls-2" d="M384.3,247a35,35,0,0,1,47.4-14.7" transform="translate(-31.6 -74.73)"/><path class="cls-2" d="M392.9,251.5a25.32,25.32,0,0,1,34.3-10.6" transform="translate(-31.6 -74.73)"/><circle class="cls-2" cx="383.8" cy="188.66" r="6.3"/><line class="cls-2" x1="386.6" y1="222.26" x2="374" y2="246.26"/><path class="cls-2" d="M418.2,297h0a4,4,0,0,1-1.7-5.4l2.1-3.9A4,4,0,0,1,424,286h0a4,4,0,0,1,1.7,5.4l-2.1,3.9A4,4,0,0,1,418.2,297Z" transform="translate(-31.6 -74.73)"/><line class="cls-2" x1="304.9" y1="247.26" x2="376.2" y2="283.56"/><line class="cls-2" x1="334.4" y1="282.87" x2="378.5" y2="305.47"/><line class="cls-9" x1="285.6" y1="257.97" x2="334.4" y2="282.87"/><path class="cls-1" d="M129.7,482.9a20.16,20.16,0,0,0-13.7-.1,19.46,19.46,0,0,0-6.2,3.4c-0.3-1.1-.5-2.2-0.8-3.3-0.5-2.1-1-4.3-1.4-6.5a41.43,41.43,0,0,0,5.1-6.6,36.6,36.6,0,0,0,6.7-18.9c0.2-6.7.1-13.6-2.5-19.4a31.06,31.06,0,0,0-2.5-4.5,15.11,15.11,0,0,0-2.2-3.1,5.23,5.23,0,0,0-4.6-1.5,9,9,0,0,0-6.1,4.8,12.75,12.75,0,0,0-1.1,2.7,8.4,8.4,0,0,0-.4,1.2l-0.1.3a1,1,0,0,0-.1.4l-0.1.6a28.55,28.55,0,0,0,.1,9.7c0.4,3,.8,5.9,1.1,8.8a123.79,123.79,0,0,0,2,13.6,64.06,64.06,0,0,1-4.5,5.8l-3,3.4c-1,1.1-2,2.4-3.1,3.7a47.9,47.9,0,0,0-9,17.7c-1.8,6.5-1.1,14.2,2.6,20a27,27,0,0,0,15.2,11.4,39.56,39.56,0,0,0,17,1.3c0.7,2.8,1.4,5.6,2,8.2,2.2,6.9.2,13.4-4,15.8a8.87,8.87,0,0,1-8.4,0h0.7a5.91,5.91,0,1,0-6.2-5.6c0,0.3.1,0.5,0.1,0.8h0a5.79,5.79,0,0,0,1.6,3.1,5,5,0,0,0,.7.8,10.7,10.7,0,0,0,4.7,2.8,11.57,11.57,0,0,0,7.5-.4,11.1,11.1,0,0,0,6.2-7.1,13.84,13.84,0,0,0,.6-5.4,44.81,44.81,0,0,0-1-5.5c-0.6-2.6-1.3-5.3-2-8.1a37.24,37.24,0,0,0,13.4-5.7,22.33,22.33,0,0,0,8.7-13.4,23.54,23.54,0,0,0-2.2-15.3A19.44,19.44,0,0,0,129.7,482.9ZM105,437.8c0.7-2.4,1.9-9,5.6-8.1,2.3,0.6,2.9,3.7,3,5.7a29,29,0,0,1-2.6,13.9,123.42,123.42,0,0,1-6.2,12c-0.5-3.5-.9-7-1.2-10.6A43.31,43.31,0,0,1,105,437.8Zm-2.1,84.1c-4.8-2.1-9.1-5.5-11.3-10a18.23,18.23,0,0,1-.4-14.5c1.8-4.9,5.2-9.4,8.9-13.4a42.41,42.41,0,0,1,3-3.1l1.6-1.5,1.1-1.1c0.4,1.7.8,3.4,1.1,5.1,0.3,1.5.7,2.9,1,4.4a20.63,20.63,0,0,0-5.8,10.8,20.86,20.86,0,0,0,1.9,13,20.28,20.28,0,0,0,1.7,2.9,6.41,6.41,0,0,0,.7.9,33.89,33.89,0,0,1-1-4.3,22.34,22.34,0,0,1,.9-11.4,17.88,17.88,0,0,1,3.2-5.4c1.5,6.1,3,12.1,4.5,17.6,1.1,4.3,2.2,8.5,3.3,12.4A29.46,29.46,0,0,1,102.9,521.9Zm36.8-14.2a15.75,15.75,0,0,1-7,11.7,28.65,28.65,0,0,1-12.7,4.7c-1.1-4.1-2.3-8.3-3.6-12.8-1.7-5.9-3.4-12.2-5.1-18.8a16.27,16.27,0,0,1,6.6-3.6,17.07,17.07,0,0,1,18.1,6.8A18.64,18.64,0,0,1,139.7,507.7Z" transform="translate(-31.6 -74.73)"/><polygon class="cls-1" points="275.6 307.67 260.8 282.67 289.8 282.26 275.6 307.67"/><polygon class="cls-1" points="339.5 343.46 368.6 343.17 353.7 318.17 339.5 343.46"/><rect class="cls-10" x="326.65" y="380.62" width="29.1" height="8.5" transform="translate(-193.02 419.32) rotate(-60.7)"/><rect class="cls-10" x="339.32" y="387.71" width="29.1" height="8.5" transform="translate(-192.73 433.98) rotate(-60.7)"/></svg>