<svg id="Layer_1" data-name="Layer 1" xmlns="http://www.w3.org/2000/svg" viewBox="0 0 757.01 830.61"><defs><style>.cls-1{fill:#1c2628;}.cls-1,.cls-13,.cls-15,.cls-17,.cls-3,.cls-4,.cls-6,.cls-7{stroke:#1c2628;}.cls-1,.cls-10,.cls-11,.cls-12,.cls-13,.cls-15,.cls-16,.cls-17,.cls-3,.cls-4,.cls-6,.cls-7,.cls-8{stroke-linecap:round;stroke-linejoin:round;stroke-width:2.13px;}.cls-2{fill:#08a38f;stroke:#000;stroke-miterlimit:10;}.cls-3,.cls-5{fill:#f08799;}.cls-18,.cls-4{fill:#faf6eb;}.cls-10,.cls-11,.cls-6{fill:none;}.cls-7{fill:#47584e;}.cls-8{fill:#f7af1a;}.cls-11,.cls-12,.cls-16,.cls-8{stroke:#fff;}.cls-15,.cls-9{fill:#671649;}.cls-10{stroke:#faf6eb;}.cls-12,.cls-14{fill:#eba798;}.cls-13{fill:#fafcff;}.cls-16{fill:#68ba93;}.cls-17{fill:#ec5e25;}</style></defs><title>musiccassa</title><rect class="cls-1" x="70.94" y="601.64" width="218.9" height="200.6"/><path class="cls-2" d="M497.2,284.8c42.3,28.8,95.9,34.1,145.1,60,49.6,25.8,95.1,71.7,78.2,108.9-16.9,36.8-96.3,64.5-139.1,101.7-42.3,36.8-48.4,82.7-73.8,119.1-31.1,22.5-75.3,52.8-111.2,55.8-40.7-7.6-76.2-50.1-115.3-79.3-38.7-29.6-80.6-45.5-107.2-74.7-27-28.8-38.3-71.3-54-121.8-15.7-50.8-35.5-110-19.8-157.1,16.1-46.7,67.3-81.2,122.1-103.6,54.4-22.4,111.6-32.3,156.4-11.4C423,203.6,454.9,256,497.2,284.8Z" transform="translate(-93.86 -122.86)"/><path class="cls-1" d="M342.1,166.2c1-.8,4.4-1.5,5-2.5,2.6-4.2,11-13.4,7.5-20.9s-8.3-4.8-8.3-4.8-0.6-15.7-17.1-4.7c-2,1.3-2.6-1.1-3.8,1.1a48.29,48.29,0,0,0-2.3,5.2" transform="translate(-93.86 -122.86)"/><path class="cls-1" d="M280.9,170c-0.6,1.2-3.4,3.2-3.5,4.3-0.7,4.9-4.4,16.8,1.9,22.2s9.5,0.9,9.5.9,7,14,17.5-2.8c1.2-2,2.8-.1,3-2.6a36.17,36.17,0,0,0-.1-5.7" transform="translate(-93.86 -122.86)"/><path class="cls-3" d="M253.9,252.7c10.6-19.8,18.8-34.5,18.8-34.5l17.6-6.9,10-21,36.2,8.9-3.8,9.8-6.4,23.3s5.4,20.1-1.8,19.7c-0.8,0-2.1,6-3.7,15.8C299.1,265.9,273.2,262.9,253.9,252.7Z" transform="translate(-93.86 -122.86)"/><path class="cls-1" d="M349.2,179.3c2.8-25.5-4.2-21.1-5.6-28.1-2.7-13.9-6.8-18.6-32.4-17-4.5.3-9.8,0.5-13.9,2.5-18.7,9.4-18.4,24.2-18.4,24.2s-9.9,34.4,28.3,37.9,0.2-.6,20.7-5.6S349.2,179.3,349.2,179.3Z" transform="translate(-93.86 -122.86)"/><path class="cls-3" d="M306.4,181.1c-1.2-6,9.2-21.9,11-27.2,3.2-9.5-13.2-5.6-3.2-7.7,11.2-2.3,21.2-2.7,27.8,6.6,2.6,3.6,6.2,21.8,7.2,26.5,3.5,16.8-6.2,28-21.7,31.3-10,2.1-17.9.7-24.6-6.6C299.1,199.8,307.6,187.1,306.4,181.1Z" transform="translate(-93.86 -122.86)"/><path class="cls-4" d="M338.7,170.9c0.6,2.2-1.6,4.6-5.1,5.4s-6.7-.3-7.3-2.5" transform="translate(-93.86 -122.86)"/><path class="cls-5" d="M300.9,204l4.2-9.6s16.6-.8,20.9,4.6-1.6,21.5-1.6,21.5l-11.7,1" transform="translate(-93.86 -122.86)"/><path class="cls-3" d="M313,175.3c-2-2.8-6.6-.4-7.5,2.1-2,5.2,2.9,14.3,11.6,8.2" transform="translate(-93.86 -122.86)"/><path class="cls-3" d="M312.2,180.9s-1-1.3-.8-1.1" transform="translate(-93.86 -122.86)"/><path class="cls-1" d="M332.8,185.8a11.57,11.57,0,0,0,7,5.7s-4.6,6.4-10.5,3.9C325.4,193.8,332.8,185.8,332.8,185.8Z" transform="translate(-93.86 -122.86)"/><path class="cls-3" d="M344.8,176.6s11.5,6,11.6,8c0.7,7.9-9,2.6-10,3.3" transform="translate(-93.86 -122.86)"/><path class="cls-1" d="M335.2,140.2l6.8,12.6c-8.9-12.7-14.1,21.8-39,20.1-0.7,0-14.3,2.5-14.1,1.6,0.2-1.1,2.2-.8,3.1-1.6,2-1.8,2.7-3.9,3.4-6.4,0.8-3-1.5-9.7,1.3-11.9,4.5-3.6,11.5-16.6,16.4-15.8Z" transform="translate(-93.86 -122.86)"/><path class="cls-1" d="M309.7,140.8c-1.1-.8-2.7-3.8-3.8-4.1-4.8-1.3-16-6.7-22.2-1.2s-2.3,9.3-2.3,9.3-14.8,5,.4,17.8c1.8,1.5-.3,2.8,2.1,3.4a52.21,52.21,0,0,0,5.7.7" transform="translate(-93.86 -122.86)"/><path class="cls-1" d="M331.3,148.9c0-1.3,1.6-4.3,1.3-5.4-1.6-4.7-3.4-17-11.4-19.1s-9,3.4-9,3.4-12.5-9.5-14.5,10.3c-0.2,2.3-2.5,1.4-1.6,3.6a48.9,48.9,0,0,0,2.6,5.1" transform="translate(-93.86 -122.86)"/><path class="cls-1" d="M295.5,155.9c-1.3-.2-4-2.3-5.1-2.1-4.9.8-17.3,0.7-20.7,8.3s1.9,9.4,1.9,9.4-11.3,10.8,7.8,15.9c2.3,0.6,1,2.7,3.3,2.2a56,56,0,0,0,5.4-1.7" transform="translate(-93.86 -122.86)"/><path class="cls-3" d="M510.9,326.4l38.4-74.1s-5.7-.9-8.1-0.1-10.8,16.9-10.8,16.9l-4.7-14.7s-3.2-1.7-3.3,6.4L522.2,277,509,294.7s-4-4.1-2.3-7.3,4.2-12.1,5.9-15.3-1.6-4.9-1.6-4.9l-17.4,21.7-5,20.6L382,328l25,54.4Z" transform="translate(-93.86 -122.86)"/><path class="cls-6" d="M527.9,286.1c2.3-5.1,2.8-11.8,2.7-17.4" transform="translate(-93.86 -122.86)"/><path class="cls-1" d="M191.7,379.4c31.7-.1,104.7,20.1,137.9,21.6l1-45.1s35.2,35.3,52,32.5c29.4-4.9,63-15.4,63-15.4l-7.8-28.6L430,315.8l-40.7-.4s-21.4-67.3-30.7-69.1l-26.5-13.9s-25.8,9.3-59.5-14.1c-20.7-14.4-67.6,17.1-66.5,44.7C207.5,292.5,191,348.2,191.7,379.4Z" transform="translate(-93.86 -122.86)"/><ellipse class="cls-1" cx="309.8" cy="657.05" rx="5.9" ry="39.4" transform="translate(-454.61 813.56) rotate(-87.37)"/><path class="cls-1" d="M169.8,629.7c3.1-1.1,16.2,2.6,26.9,20.2s18,38.2,15.2,39.9-14.6-16.3-25.3-33.8S161.2,632.8,169.8,629.7Z" transform="translate(-93.86 -122.86)"/><path class="cls-4" d="M233.4,474.4c6.6-9.4,6.9-18,5.5-24.4-1-4.3-2.1-31-3.3-32.9l-16.7,5.7" transform="translate(-93.86 -122.86)"/><path class="cls-3" d="M335.7,673c-8.1-32.8,47.5-126.4,47.5-126.4L290,586l-8,104,40.1,19.3,44.3-9S338.1,682.9,335.7,673Z" transform="translate(-93.86 -122.86)"/><path class="cls-7" d="M185.9,444.9c-14.8-15.2,6.7-56.3,6.7-56.3s79.9,13.7,79.5,13.6c-1.1-.2,117.4,4.8,153.5,25.5,16.9,9.7,15.7,45.7,8.5,63.8l-86.4,166s-17.4-4.7-23.4-5.3c-13-1.3-52.3,1.2-52.3,1.2l52-142-95.3-23.8C212.4,483.2,197.7,457.1,185.9,444.9Z" transform="translate(-93.86 -122.86)"/><path class="cls-1" d="M325,687.9l8.9-12.8s16.7,7.4,33.5,14.9C354.1,696,338.7,694.2,325,687.9Z" transform="translate(-93.86 -122.86)"/><path class="cls-8" d="M278.9,680s11.2-8.9,17.1,3.1c2.1,4.2,18.3,13.3,24.1,11.9l5-7.1c13.7,6.3,29.1,8.2,42.4,2.1,10.3,4.6,20.6,9.3,27.1,12.2,18.5,8.4,13,23.8,13,23.8l-77.7.5-56.1-3.3Z" transform="translate(-93.86 -122.86)"/><line class="cls-6" x1="121.44" y1="311.84" x2="140.74" y2="304.74"/><path class="cls-3" d="M194.1,675.7c12.7-19.7,80.3-48.4,80.3-48.4l-56.6-34.4-67,54.2,5.8,38.1,32.7,31.2C189.2,716.5,188.5,684.3,194.1,675.7Z" transform="translate(-93.86 -122.86)"/><path class="cls-7" d="M216.9,495.9L284.6,543,170.5,629.1l-0.8.6a64.65,64.65,0,0,1,20.7,17c7.7,9.8,21.3,43.1,21.3,43.1l74.1-49.5,94.3-62.9,6.5-4.3c11.1-9.9,17.4-29.2,14.9-45a33.67,33.67,0,0,0-4.8-13.2c-22.3-34.1-95.4-79.9-97.7-81.2,0.6,0.2,1.3-2.9,2-7.5,1.7-10.6,3.4-28.8,3.4-28.8l-108.7-22s-47.2,73.3-18.3,100.9C189.7,488,208.7,488.4,216.9,495.9Z" transform="translate(-93.86 -122.86)"/><path class="cls-1" d="M170.6,629.1c6.4,2,11.2,1.5,14.8.2,10.7-3.9,9.5-14.9,22.9-21.5,18.4-9,34.7,4.8,44.3-4.8,7.5-7.5.3-18.8,8.1-25.6s82.3-30.9,21.9-63.1c-31.9-17-39.7-36.4-69.4-41.8a60.12,60.12,0,0,0-23.8,0,58.22,58.22,0,0,0-12,3.8c14,9.4,31.3,12.2,39.4,19.6L284.5,543Z" transform="translate(-93.86 -122.86)"/><path class="cls-6" d="M168.5,448.2c17.4-2.9,31.7-14.2,33.3-19.7,1.1-3.7,12.3-24.9,12.1-26.8l-17.5-2.1" transform="translate(-93.86 -122.86)"/><path class="cls-1" d="M177.8,682.1L195,682a198.38,198.38,0,0,0,3.3,30.9C187.4,707.9,182,694.3,177.8,682.1Z" transform="translate(-93.86 -122.86)"/><path class="cls-8" d="M156.9,639.7s13.7,4.1,7.2,15.8c-2.2,4.1-.5,22.6,4,26.5h9.7c4.1,12.2,9.6,25.9,20.5,30.9,1,5.4,2.1,11,3.1,16.2,1.3,7,6,1.8,15.9,7.6,4.4,2.6,2.9,15.3,2.9,15.3l-43.7-4.1-25.2-36.5-12.1-20.1-14.9-24.9Z" transform="translate(-93.86 -122.86)"/><path class="cls-1" d="M200.1,375.3l104.4,22s-19.1,12.1-29.2,14.6-20.3.8-26.7-.9-31.7-9.9-43.1-.9c-20.2,6.3-17.8-14.1-17.8-14.1Z" transform="translate(-93.86 -122.86)"/><path class="cls-6" d="M282.7,614.6c-4.6,13.1-8.1,27.2-16.6,38.2" transform="translate(-93.86 -122.86)"/><line class="cls-6" x1="88.24" y1="281.44" x2="108.64" y2="283.94"/><line class="cls-6" x1="187.34" y1="293.74" x2="205.14" y2="310.74"/><line class="cls-6" x1="211.34" y1="422.24" x2="190.74" y2="420.24"/><polyline class="cls-6" points="168.44 355.24 234.34 419.24 99.24 506.34 130.44 553.04"/><line class="cls-6" x1="245.14" y1="183.04" x2="236.64" y2="232.94"/><line class="cls-6" x1="398.04" y1="169.54" x2="111.84" y2="422.04"/><line class="cls-6" x1="454.24" y1="119.94" x2="420.64" y2="149.64"/><path class="cls-3" d="M276.9,482.8c-4.2,20.5-37.8,45.3-37.8,45.3s-7.4-4.1-4.2-9.1,13.7-16.9,13.7-16.9-6.2,1.4-6.7-.7,1.2-4.6,1.2-4.6-2.5-1.6-5.1-3.2,1.2-4.6,1.2-4.6-7.6-4.8-10.1-6.5a30.78,30.78,0,0,1-5.5-5.3s2.8-7.1,5.3-5.5,9.7,4.4,9.7,4.4l-26-27.1L223,433.9l22.3-10.8C262.8,447.4,278.9,473.1,276.9,482.8Z" transform="translate(-93.86 -122.86)"/><path class="cls-1" d="M167.6,402.2l38.5,53.4s11-12.8,15.4-16.2c1.3-1,3.1-2.2,5.2-3.6,9-5.8,23.5-13.9,23.5-13.9-8.7-10.6-40.8-52.5-40.8-52.5l56-76.2,9.6-5.7,4.3-2.6-70.5-34.3L154.6,347C151.9,362.8,156.6,390.7,167.6,402.2Z" transform="translate(-93.86 -122.86)"/><path class="cls-6" d="M260.8,496.5a13.71,13.71,0,0,1-5.9,4.1,35,35,0,0,1-7.1,1.7" transform="translate(-93.86 -122.86)"/><path class="cls-6" d="M255.3,491.4a19.72,19.72,0,0,1-14,4.7" transform="translate(-93.86 -122.86)"/><path class="cls-6" d="M251.6,483.8a31.12,31.12,0,0,1-6.8,4,8.65,8.65,0,0,1-3.5.9,4.27,4.27,0,0,1-3.4-1.1" transform="translate(-93.86 -122.86)"/><line class="cls-6" x1="207.54" y1="591.54" x2="180.94" y2="591.64"/><line class="cls-6" x1="313.14" y1="591.24" x2="220.34" y2="591.24"/><line class="cls-6" x1="51.64" y1="559.24" x2="37.14" y2="538.24"/><polyline class="cls-6" points="126.54 620.44 90.14 614.74 56.94 566.84"/><path class="cls-9" d="M332.5,232.4l26.2,13.8c9.2,1.8,30.7,69.1,30.7,69.1l40.7,0.4,7.8,28.6c-17.1,2.6-29.4-16.8-40.4-14.9-17.3,3-22.3,7-27.5.6-6.1-7.5,9.4-22.3-3.7-34.7-12.7-12.1-23.8-.9-28.6-25.3-1.4-7.1,7.2-16.9,2.9-22.8-6.2-8.4-22.4-3-25.5-9.6-0.3-.6-3.5-3.2-3.6-4C317.6,234.3,329.4,233,332.5,232.4Z" transform="translate(-93.86 -122.86)"/><path class="cls-9" d="M205.5,410.1c7.7,9.5,14.8,18.1,21.2,25.7,9-5.8,23.5-13.9,23.5-13.9-8.7-10.6-40.8-52.5-40.8-52.5l56-76.2,9.6-5.7c-5.5-4.5-12.7-8.6-21.5-9.2-21.7-1.4-43.5,19.2-45.5,37.9-1,9.3,3.6,11.2,1.6,19.6-4.1,17.2-25.5,16.9-29.3,30.7C178,374.3,182.6,381.8,205.5,410.1Z" transform="translate(-93.86 -122.86)"/><path class="cls-1" d="M341.7,266.2c5.9,11.6,9.1,13.8,11,13.4,2.5-.6,4.5-6.4,2.2-10.6s-8.4-5.9-13.2-2.8" transform="translate(-93.86 -122.86)"/><path class="cls-1" d="M362.3,286.4c1.4-.5,1.8-5.4.2-6.1-1-.5-3.1.6-3.5,2.3C358.5,284.8,361.2,286.8,362.3,286.4Z" transform="translate(-93.86 -122.86)"/><path class="cls-1" d="M222.4,323.4c3.1-.9,4.1-4.8,4.1-7,0.1-4.2-3.1-8.7-6-8.6-3.6.1-7.5,7.3-5.1,11.9C216.6,322,219.6,324.2,222.4,323.4Z" transform="translate(-93.86 -122.86)"/><path class="cls-1" d="M299.1,433.6c2.3,1.3,75.3,47.1,97.7,81.2a32.71,32.71,0,0,1,4.8,13.2c4.8-3.2,8.6-7.3,10.3-12.5,3.6-10.7-2.1-24.5-10.7-32.3-12.6-11.4-26.3-4.8-37.7-17.4-6.7-7.4-4.4-12.5-9.2-20-9.4-14.8-35.3-22-53.3-19.7C300.4,430.7,299.7,433.9,299.1,433.6Z" transform="translate(-93.86 -122.86)"/><path class="cls-1" d="M286,640.3a37.06,37.06,0,0,0,15.6,2.1c8.7-1,10-5.5,28.2-16.1,22.3-13,26.8-10,35.3-18.1,8.3-7.9,13.5-19.9,15.2-30.8Z" transform="translate(-93.86 -122.86)"/><path class="cls-1" d="M517.4,264.4l5.2,4.6a10.34,10.34,0,0,0,14.4-.8l15.8-17.7a10.34,10.34,0,0,0-.8-14.4l-5.2-4.6a10.34,10.34,0,0,0-14.4.8L516.6,250A10.15,10.15,0,0,0,517.4,264.4Z" transform="translate(-93.86 -122.86)"/><line class="cls-10" x1="458.94" y1="128.24" x2="438.84" y2="111.24"/><line class="cls-10" x1="445.64" y1="144.04" x2="425.24" y2="125.84"/><line class="cls-10" x1="458.64" y1="118.14" x2="433.64" y2="145.74"/><line class="cls-10" x1="448.64" y1="108.94" x2="422.84" y2="136.84"/><polyline class="cls-6" points="144.54 284.14 156.34 299.04 142.64 306.94"/><line class="cls-11" x1="161.64" y1="197.74" x2="126.74" y2="245.84"/><line class="cls-11" x1="176.94" y1="192.84" x2="144.64" y2="237.24"/><path class="cls-11" d="M333,314c-2,13-1,43-1.3,43.4" transform="translate(-93.86 -122.86)"/><path class="cls-11" d="M174.2,341.4c2.9,2.6,4.9,6.7,4,10.5a19.85,19.85,0,0,1-2.1,4.7c-6,12-4.5,27.4,3.9,37.8,3.7,4.7,8.7,8.4,12.1,13.3" transform="translate(-93.86 -122.86)"/><path class="cls-11" d="M170.5,390c2.6,13.4,14.5,22.7,21.4,34.4" transform="translate(-93.86 -122.86)"/><path class="cls-6" d="M363.5,250.9c12.1,24.5,25.8,64.3,25.8,64.3l40.7,0.4" transform="translate(-93.86 -122.86)"/><path class="cls-11" d="M339.1,354.1a97.06,97.06,0,0,0,17.8,13.5c10,5.7,37.1,14.1,37.1,14.1,7.2-7.2,16.3-3.3,23.1-.9" transform="translate(-93.86 -122.86)"/><path class="cls-11" d="M393.1,374.6c-7.3,1.3-13.9-4.9-21.3-5.8" transform="translate(-93.86 -122.86)"/><path class="cls-11" d="M295.3,233.2c-3.9.4-7.5-1.9-11.1-3.6-6.3-2.9-13.9-4.4-17.9-10.1-8.4.6-18.6,2.1-26.1,6a22.5,22.5,0,0,0-6.8,5.1c-2.7,3.1-4.5,7.3-8.2,9.1" transform="translate(-93.86 -122.86)"/><path class="cls-6" d="M391.6,532.1c1.4,7.3,2.7,15.5-1.3,21.8-1.8,2.8-4.5,4.9-7.1,6.9-15.8,12.3-31.9,24.1-48.2,35.6" transform="translate(-93.86 -122.86)"/><path class="cls-6" d="M355.8,568.5a279.08,279.08,0,0,0-33.3,25.1c-4.9,4.3-9.8,8.8-15.8,11.5" transform="translate(-93.86 -122.86)"/><path class="cls-6" d="M324.1,582.8c-5.8,7-13.9,11.7-21.8,16.1-4.1,2.3-8.2,4.6-12.2,6.9" transform="translate(-93.86 -122.86)"/><path class="cls-6" d="M358.5,622.1c-3.7,7-12.6,21.2-17.2,27.6" transform="translate(-93.86 -122.86)"/><path class="cls-6" d="M344.8,627.9a44.71,44.71,0,0,1-5.5,13.6" transform="translate(-93.86 -122.86)"/><path class="cls-12" d="M729.4,640.3L731,757.7l27.4,136.7s7.1,27.6,2.8,34.9c-3.9,6.6-29.4,2.4-29.4,2.4s-61.9,5.5-78.8-.2c-29.6-10,9.2-18,9.2-18L708.5,896,665,779.3,640.1,641.9Z" transform="translate(-93.86 -122.86)"/><path class="cls-12" d="M583.6,641.2L571.3,782l2.6,96.8s9.2,18.1,5.5,25.7c-3.3,6.9-29.1,4.8-29.1,4.8s-53.9,9-71.2,4.7c-30.3-7.5.4-16.9,0.4-16.9l44.7-21.4L505.6,770.9l9.1-143.1Z" transform="translate(-93.86 -122.86)"/><path class="cls-12" d="M694.9,361.4s71.3,40,93.5,70.5c15.6,21.5,41.8,69,41.8,69s11.6,12.5,7.8,23.1c-4.3,12,1.4,11.4,2.3,14.2,9.7,31.9-32.7,10-32.7,10l-7.1-36.5L740,448.4l-66.3-35Z" transform="translate(-93.86 -122.86)"/><path class="cls-12" d="M568,400.7l-16,95.4L511.3,483s1.1-58.4,10.9-93.2,40-37.8,40-37.8Z" transform="translate(-93.86 -122.86)"/><path class="cls-4" d="M658.9,365.4l-11.7-13.1-18.4-1L616.7,369l-8.2-16.5-18.7-1.1L576.2,359l3.2,110.8,85.1,4.8Z" transform="translate(-93.86 -122.86)"/><path class="cls-1" d="M647.2,302.7c8.3-26.7-2.6-47.3-40.7-42.5-4.4.6-9.7,1.1-13.7,3.4-18,10.5-13.2,37.8-15.2,40.3-4.8,5.8,1.2,13.9-3.7,24-10.1,21-2.9,47.9-2.9,47.9l95-2.8s3.9-9.4-.8-27c-1.7-6.2-9.2-5.9-10.6-23S647.2,302.7,647.2,302.7Z" transform="translate(-93.86 -122.86)"/><path class="cls-12" d="M600.4,320.7l0.3,23.5-5.9,6.9s-2.9,23.3,6.3,28.9c10.2,6,32.9-5.8,40.7-7.8,7-1.8-4.2-16.4-4.2-16.4l-0.8-26.9,0.6-10.5Z" transform="translate(-93.86 -122.86)"/><path class="cls-12" d="M595.6,306.7c-1.6-5.9-1.1-17.6.4-23,2.6-9.7,5.4-5.4,15.2-8.1,11-3,16.3-7.4,23.5,1.4,2.8,3.4,11,16.2,12.3,20.8,4.5,16.5-4.2,33.2-19.4,37.4-9.8,2.7-17.8,1.8-24.9-5.1C598.7,326.3,597.3,312.6,595.6,306.7Z" transform="translate(-93.86 -122.86)"/><path class="cls-13" d="M617.8,305.2c-0.8-2.3,1.3-5,4.7-6.1s6.6-.1,7.4,2.1-1.3,5-4.7,6.1S618.5,307.5,617.8,305.2Z" transform="translate(-93.86 -122.86)"/><path class="cls-13" d="M637.6,296.1c-0.7-2.3,1.4-5,4.7-6.1s6.6-.1,7.4,2.1-1.3,5-4.7,6.1S638.3,298.4,637.6,296.1Z" transform="translate(-93.86 -122.86)"/><path class="cls-14" d="M603.8,347l-2.4-24s19.3-4.3,24,.8-0.3,21.5-.3,21.5L613.5,347" transform="translate(-93.86 -122.86)"/><path class="cls-1" d="M584,304.3c4.6,8.2,12.3-10.2,12.3-10.2l31.2-7.4,2.2-15.9,7.3,17.8,11.1-.2s-8.8-22.1-11.1-24.2c-9.1-8.7-24.6-8.2-34.6.1C594.1,271.2,574.5,287.5,584,304.3Z" transform="translate(-93.86 -122.86)"/><path class="cls-12" d="M598.7,308.5c-2.2-2.7-6.6,0-7.4,2.6-1.7,5.3,2.3,14.2,10.6,8.9" transform="translate(-93.86 -122.86)"/><path class="cls-1" d="M621.6,306.4c-1.6,1-3.6.8-4.4-.5a3.19,3.19,0,0,1,1.4-4.2c1.6-1,3.6-.8,4.4.5A3.19,3.19,0,0,1,621.6,306.4Z" transform="translate(-93.86 -122.86)"/><path class="cls-1" d="M637.4,296.9c-1.1-1.6-.8-4.2,3.4-4.9,1.5-.3,1.4.5,2.4,2s-0.4,3.3-1.6,4.2S638.5,298.5,637.4,296.9Z" transform="translate(-93.86 -122.86)"/><path class="cls-6" d="M596.5,313.6c0.2,0.2.3,0.4,0.5,0.6" transform="translate(-93.86 -122.86)"/><path class="cls-15" d="M652,351.7l6.8,18.8,13.5,37.4-8.2,22.2-2.3,36.3-97,36.9-11-106.4,31.8-22.5,2-29.8,11.2,1.2,2.9,7.4a23.52,23.52,0,0,0,22,15.1h2.8a14.38,14.38,0,0,0,14.3-16.2l-0.5-4Z" transform="translate(-93.86 -122.86)"/><path class="cls-1" d="M622.8,319.3c3.7,3.4,8.8-.4,13.4-0.7,0,0-.3,8.2-8.6,7.4C622.1,325.4,622.8,319.3,622.8,319.3Z" transform="translate(-93.86 -122.86)"/><path class="cls-12" d="M635.4,299.4c5.7,1.1,11.8-.8,12.5,2.5,0.8,4.3-8.4,7.4-9.6,7.2" transform="translate(-93.86 -122.86)"/><path class="cls-10" d="M618.3,270.9c-2.8,5-2.4,11.2-3.4,16.9" transform="translate(-93.86 -122.86)"/><path class="cls-10" d="M601.1,275.1c-24.1-1.9-17.3,44.2-19.7,57.2" transform="translate(-93.86 -122.86)"/><path class="cls-1" d="M500.3,784.7l14.7-6.8,13.7,13.5,12.5-17.5L559,789.8l8.9-12.4L586,789.5l-5.1-89.6,46-108.8s1.4,9.5,3.7,24c6.4,41.5,19.5,123.6,24.8,139,0.2,0.5,2.1,12.9,3.5,21.6,0.8,4.8,1.3,8.4,1.3,8.4l13.3-9.7,14.4,16.2,14.6-13.1,15.2,14.9,10.9-13.3,15.5,13,4.1-15.4S728,594.1,712.8,552.5s-30.1-45-30.1-45l-131-26.1s-1.8,6.3-4.8,16.6c-12.6,43.4-45.3,158.8-45.3,178.9,0.1,15.4-.5,52.9-0.9,79.2C500.5,772.7,500.3,784.7,500.3,784.7Z" transform="translate(-93.86 -122.86)"/><path class="cls-1" d="M596.3,344.7l-29.9-16.4-4.5,19.4-16.6.4,7.3,22.3-21.7,7.7,9.8,19.8-14.1,14.7,22.1,8.9-0.8,77.1,50.1,0.6Z" transform="translate(-93.86 -122.86)"/><path class="cls-1" d="M647,350.1s-11.2,135.2-10.7,143.4,48.1-7.9,48.1-7.9l4.8-68,18-6.6-12-15,21.3-10.1-15.1-8.1,15.5-23.3-36.4-3Z" transform="translate(-93.86 -122.86)"/><path class="cls-16" d="M565.7,535.5c12.7,19.1,34.8,11.9,52.3,21.5,13.9,7.6,23.3,29.8,33.5,41.7,31.8,36.8,80.1,42.7,116.5-24.5,1.4-2.6,2.7-5.3,3.9-8,15.3-34.9,14-83.5-43.6-98-44.4-11.2-60.9-6.8-71.3-6.2-4.2.2-7.4-.2-11-2.5-16-10.1-28.1-46.6-50-43.5-2.4.3-15.1,3.8-12.6,20.8s21.6,35.6,22.5,47c0.4,5.2,4.9,20.4-4.4,17.1C584.5,494.7,551.5,514.2,565.7,535.5Z" transform="translate(-93.86 -122.86)"/><path class="cls-4" d="M605.9,460.3c4.3-22.3,36.4,14.8,46.7,20.7,21.5,12.1,71.3-2.1,67,33.8-1.4,11.6-12.7,20.5-20,28.9-5.3,6.1-4.1,38.2-20.9,42.4-17.8,4.4-27.6-22.1-42.8-33.1-11.4-8.2-43.1-9.3-48.4-23.5-6.6-17.6,13-15.4,19.2-27.2C613.1,490.1,603.4,473,605.9,460.3Z" transform="translate(-93.86 -122.86)"/><path class="cls-1" d="M446.4,395.8c-15.1-5-22.6-16-38.5-16.4s-22.8,4.3-.8,23.7,11.8,16.2,28,27.5,24.7,6.8,24.7,6.8l6,3,9.7-23.5C472.5,413.6,459.6,400.1,446.4,395.8Z" transform="translate(-93.86 -122.86)"/><path class="cls-4" d="M704,529.6l-227.9-112a5.17,5.17,0,0,0-.6-0.7l-9.7,23.5L692.4,552.5Z" transform="translate(-93.86 -122.86)"/><path class="cls-1" d="M723.6,522.9l-20-11.5-25.3,51.5,19.7,9.4Z" transform="translate(-93.86 -122.86)"/><path class="cls-6" d="M697.9,537.2L470.3,423.9" transform="translate(-93.86 -122.86)"/><path class="cls-6" d="M693.5,543.7l-228-112.1" transform="translate(-93.86 -122.86)"/><path class="cls-12" d="M528.3,525.5c28.1,13.1,23.4-43.8,23.4-43.8l-38.3-17-33.6-14.9,1.9-23s0.4-4.7-1.8-6.6-7-.9-7-0.9-0.6-4.8-2.2-5.9c-4.9-3.6-8.6-.9-8.6-0.9l-5.3-9.5s4.4-6.5,5.5-11.5c1.1-4.5-1-7.7-1.7-7.4-2.4.9-12.6,17.4-12.6,17.4l1.2,37.9C449.3,439.3,500.2,512.4,528.3,525.5Z" transform="translate(-93.86 -122.86)"/><path class="cls-6" d="M473,418.9c-1.2,6.5-5,18.6-2.4,24.7" transform="translate(-93.86 -122.86)"/><path class="cls-6" d="M464.7,412.2c-5.8,1.5-8.8,24.7-4.9,28.4" transform="translate(-93.86 -122.86)"/><path class="cls-6" d="M836.4,550.3c-1.7-3.4-4-5.8-5.8-9.2" transform="translate(-93.86 -122.86)"/><path class="cls-6" d="M826,551.3c-3.6-6.4-2.2-19.2-4.7-26.1" transform="translate(-93.86 -122.86)"/><path class="cls-6" d="M817.1,550.9c-2.7-1.3-4.8-23.4-5.7-27.4" transform="translate(-93.86 -122.86)"/><path class="cls-12" d="M648.8,274.8s4.2-24.3-23.3-21.7-48,12.6-48.5,20.2a39.34,39.34,0,0,0,1.5,13.6Z" transform="translate(-93.86 -122.86)"/><path class="cls-4" d="M650,277.8S666.1,264,660,259c-10.1-8.5-65,14.3-65,14.3l-17.7,13.2Z" transform="translate(-93.86 -122.86)"/><path class="cls-10" d="M713.4,634.8s16.4,96.8,22,144.8" transform="translate(-93.86 -122.86)"/><path class="cls-10" d="M604.4,582.7c-19.7,32-46.4,119.1-46.4,119.1s1,42.6,3.3,63.1" transform="translate(-93.86 -122.86)"/><path class="cls-1" d="M763,895l4.1,29.4-69.1.9L679.2,904l20.9-12.4,1-16.7,19,20.1H763Z" transform="translate(-93.86 -122.86)"/><path class="cls-1" d="M579.4,876.4l-0.2,24.9-63.9,6.1L495,887.6l19.9-14,5.2-17,15,19Z" transform="translate(-93.86 -122.86)"/><path class="cls-17" d="M767.1,918.8l0.8,16.5-129.5,1.3s-7.7-14.5,4.6-21.2,41.3-14.2,41.3-14.2l10.8,17.6h72Z" transform="translate(-93.86 -122.86)"/><path class="cls-17" d="M579.9,895.7l1,18.4L454,915s-5.9-5.7,5.8-13.3,40.1-17.3,40.1-17.3L512,901.1Z" transform="translate(-93.86 -122.86)"/><path class="cls-4" d="M736.8,915.7a4.2,4.2,0,0,0-2.6-5.4,4.38,4.38,0,0,0-5.4,2.7,4.16,4.16,0,0,0,2.6,5.4A4.21,4.21,0,0,0,736.8,915.7Z" transform="translate(-93.86 -122.86)"/><path class="cls-4" d="M553.4,894.9a4.2,4.2,0,0,0-3-5.2,4.26,4.26,0,0,0-5.2,3.1,4.16,4.16,0,0,0,3,5.2A4.26,4.26,0,0,0,553.4,894.9Z" transform="translate(-93.86 -122.86)"/><path class="cls-4" d="M717.9,915.6a4.16,4.16,0,0,0-2.6-5.4,4.38,4.38,0,0,0-5.4,2.7,4.16,4.16,0,0,0,2.6,5.4A4.29,4.29,0,0,0,717.9,915.6Z" transform="translate(-93.86 -122.86)"/><path class="cls-4" d="M534.5,896.2a4.18,4.18,0,1,0-5.1,3.1A4.2,4.2,0,0,0,534.5,896.2Z" transform="translate(-93.86 -122.86)"/><path class="cls-10" d="M706.1,897.1a6.41,6.41,0,0,1-.7-0.9c-1.4-2.2-2.8-4.2-4.4-6.3" transform="translate(-93.86 -122.86)"/><path class="cls-10" d="M521.3,878.7a2.4,2.4,0,0,1-.8-0.8c-1.5-2.1-3.1-4-4.8-6" transform="translate(-93.86 -122.86)"/><path class="cls-10" d="M701.1,903.1s-5-6.3-7.1-9.7" transform="translate(-93.86 -122.86)"/><path class="cls-10" d="M516.8,885s-5.4-5.9-7.8-9.1" transform="translate(-93.86 -122.86)"/><path class="cls-10" d="M694,906c-1.7-2.7-3.6-5.3-5.5-7.8" transform="translate(-93.86 -122.86)"/><path class="cls-10" d="M510,888.4c-1.9-2.6-4-5-6.1-7.4" transform="translate(-93.86 -122.86)"/><path class="cls-6" d="M697.4,919l-41,7.9" transform="translate(-93.86 -122.86)"/><path class="cls-6" d="M514.3,901.2L491,907" transform="translate(-93.86 -122.86)"/><path class="cls-9" d="M501.6,677.2c0-15.2,18.6-84.6,33.2-136.4,6.8,2.2,12.8,6.1,16.8,12.8h0a6.09,6.09,0,0,1-2.5,8.5c-5.9,3.1-11.9,3.5-15.3,10.1-6.3,12.5,9,23.8,9,40.2-1.7,2.1-3.4,4.2-5.2,6.1a76,76,0,0,0,5.2-6.1,25.75,25.75,0,0,1-.7,6c-3.4,14.5-15.3,12.4-22.5,32.6-3.4,9.4-1.1,10.7-5.9,28.4-4.4,16.1-6.6,16.5-7.1,24.3-1,16.1,8.4,21.2,7.7,31.4-0.5,7.2-6,14.9-13.5,21.3C501.1,730.1,501.7,692.6,501.6,677.2Z" transform="translate(-93.86 -122.86)"/><path class="cls-9" d="M630.6,615.3c6.4,41.5,19.5,123.6,24.8,139,0.2,0.5,2.1,12.9,3.5,21.6,14-7.5,29.4-14.9,29.6-19.5,0.3-9.3-18-15.6-25.5-32.3-5.4-12-.2-10.2-5.9-32.6-3.8-14.9-12.3-12.7-14.2-22.2-5.3-26.9,8-43.9-.1-51.5C641,616,637.5,614.4,630.6,615.3Z" transform="translate(-93.86 -122.86)"/><path class="cls-1" d="M657.1,462c1.5,5.1,4,9.6,7.5,12.6,10.9,9.6,27.2-3.1,51.8,6.9,2.6,1.1,18.1,7.6,28.4,23.1,13.1,19.6,4.1,32.9,14.2,48.6a45.66,45.66,0,0,0,13,12.9c15.3-34.9,14-83.5-43.6-98C684,457,667.5,461.4,657.1,462Z" transform="translate(-93.86 -122.86)"/><polyline class="cls-6" points="440.94 417.94 407.74 547.34 407.24 600.04"/><line class="cls-6" x1="543.04" y1="534.44" x2="565.04" y2="653.14"/><polyline class="cls-10" points="570.74 228.44 563.24 227.64 559.14 301.04"/><line class="cls-10" x1="495.94" y1="228.54" x2="495.94" y2="289.34"/><path class="cls-11" d="M571.7,684.3c0.3-.3-7.9,18.7-7.8,22,0.2,10.5,1.3,39.3,3.1,49.6" transform="translate(-93.86 -122.86)"/><path class="cls-11" d="M570.3,709.1c2.5,17.1,4.3,34.3,5.4,51.5" transform="translate(-93.86 -122.86)"/><path class="cls-11" d="M705.4,630.4a320.44,320.44,0,0,0,8,50.7" transform="translate(-93.86 -122.86)"/><path class="cls-11" d="M698.7,652.2a244.41,244.41,0,0,0,6.8,36.9c5.2,19.7,13,39.7,10.3,59.9" transform="translate(-93.86 -122.86)"/><path class="cls-11" d="M716.8,695.3c0.9,7.3,1.9,14.5,2.8,21.8" transform="translate(-93.86 -122.86)"/><path class="cls-11" d="M651.7,672.2c0.5,2.1,2.2,3.7,3.7,5.2a34.08,34.08,0,0,1,9.1,24.1" transform="translate(-93.86 -122.86)"/><path class="cls-11" d="M654.2,640.6a54.32,54.32,0,0,0,5.7,25.4" transform="translate(-93.86 -122.86)"/><path class="cls-11" d="M554.6,525.9c1.1,4.7,2.3,9.5,5.2,13.4,2.4,3.2,5.8,5.4,9.1,7.6a55.34,55.34,0,0,0,9.1,5.3c10.1,4.4,22.6,3.4,31.2,10.4" transform="translate(-93.86 -122.86)"/><path class="cls-11" d="M616.7,578.7c-3.7-3.8-7.4-7.7-11.9-10.5s-9.9-4.6-15.1-3.8" transform="translate(-93.86 -122.86)"/><path class="cls-11" d="M566.2,415.9a26.88,26.88,0,0,1-17.3,3.8" transform="translate(-93.86 -122.86)"/><path class="cls-11" d="M553.1,400.7a27.22,27.22,0,0,1-7.4-1.6" transform="translate(-93.86 -122.86)"/><path class="cls-11" d="M686.7,417.6a107.37,107.37,0,0,1-19.6,1.7" transform="translate(-93.86 -122.86)"/><path class="cls-11" d="M683.5,409.2a57.14,57.14,0,0,1-19.6,3.2" transform="translate(-93.86 -122.86)"/><path class="cls-11" d="M665.7,376.7a159.48,159.48,0,0,0-3.6,33.7c0,5.5.1,11.6-3.6,15.6" transform="translate(-93.86 -122.86)"/><path class="cls-11" d="M661.3,429.7a5,5,0,0,0,3.1-5.4" transform="translate(-93.86 -122.86)"/><line class="cls-11" x1="591.54" y1="337.34" x2="565.74" y2="337.34"/><path class="cls-11" d="M561.8,346.4a197.17,197.17,0,0,1,14.8,14.1" transform="translate(-93.86 -122.86)"/><path class="cls-11" d="M647.8,326.9a46,46,0,0,0,6.5,18.6" transform="translate(-93.86 -122.86)"/><path class="cls-11" d="M641.3,326c0.3,3.9.6,7.9,0.9,11.8" transform="translate(-93.86 -122.86)"/><path class="cls-11" d="M590,307c-0.4,11.9.8,20.7,0.4,32.6a7.66,7.66,0,0,1-.7,3.7" transform="translate(-93.86 -122.86)"/><line class="cls-10" x1="247.04" y1="601.64" x2="247.04" y2="802.34"/><line class="cls-10" x1="258.44" y1="627.24" x2="277.74" y2="627.24"/><line class="cls-10" x1="258.44" y1="637.74" x2="277.74" y2="637.74"/><line class="cls-10" x1="258.44" y1="648.24" x2="277.74" y2="648.24"/><rect class="cls-10" x="254.34" y="619.94" width="27.2" height="35.9"/><polyline class="cls-10" points="132.44 619.94 231.34 619.94 231.34 655.74 93.74 655.74 93.74 638.74"/><circle class="cls-10" cx="110.34" cy="638.74" r="5.1"/><circle class="cls-10" cx="132.44" cy="638.74" r="5.1"/><circle class="cls-10" cx="154.54" cy="638.74" r="5.1"/><rect class="cls-10" x="170.74" y="633.54" width="47.8" height="10.2"/><circle class="cls-10" cx="158.54" cy="720.94" r="43.5"/><circle class="cls-10" cx="158.54" cy="720.94" r="36.1"/><circle class="cls-10" cx="158.54" cy="720.94" r="17.9"/><line class="cls-10" x1="67.94" y1="783.84" x2="289.84" y2="783.84"/><rect class="cls-18" x="246.44" y="690.34" width="43.4" height="43.4"/><line class="cls-6" x1="288.84" y1="690.34" x2="288.84" y2="726.04"/><line class="cls-6" x1="341.74" y1="806.64" x2="485.14" y2="806.64"/><line class="cls-6" x1="451.34" y1="799.54" x2="508.84" y2="799.54"/><line class="cls-6" x1="510.04" y1="829.54" x2="653.84" y2="829.54"/><line class="cls-6" x1="625.54" y1="824.64" x2="755.94" y2="824.64"/><rect class="cls-1" x="357.14" y="789.14" width="130" height="5"/><rect class="cls-1" x="543.14" y="809.14" width="131" height="5"/></svg>