<svg id="Layer_1" data-name="Layer 1" xmlns="http://www.w3.org/2000/svg" viewBox="0 0 536.75 824.8"><defs><style>.cls-1{fill:#08a38f;}.cls-12,.cls-2{fill:none;}.cls-10,.cls-2,.cls-3,.cls-4,.cls-5,.cls-6,.cls-7,.cls-8,.cls-9{stroke:#1c2628;}.cls-10,.cls-12,.cls-2,.cls-3,.cls-4,.cls-5,.cls-6,.cls-7,.cls-8,.cls-9{stroke-linecap:round;stroke-linejoin:round;stroke-width:2.13px;}.cls-3{fill:#f7af1a;}.cls-4{fill:#1c2628;}.cls-5{fill:#68ba93;}.cls-13,.cls-6{fill:#faf6eb;}.cls-7{fill:#671649;}.cls-15,.cls-8{fill:#ec5e25;}.cls-11,.cls-9{fill:#f08799;}.cls-10{fill:#fafcff;}.cls-12{stroke:#faf6eb;}.cls-14{fill:#f3a13b;}.cls-16{fill:#f55c4a;}</style></defs><title>musicprofile</title><path class="cls-1" d="M421.9,309.6c16.3,3.4,34.8,2.1,48.9,10.1,15.2,8.8,35.7,23.9,45.2,37.7,18.2,26.3,21,56.2,36,84,44.5,82.8,49.2,146.4,14.9,233.2-21.1,53.3-40,93.3-88,130.4-20,15.5-40,38.3-66.8,44.9-20.2,5-92-.6-114-4.3-58.2-10-99.5-69.5-96.1-120.2,1.8-27.5,23.6-52.3,8.2-79.7-25.5-45.3-97.4-24-120.6-71-10-20.3-3.9-42.7,0-63.7,15.4-82.3,92.9-152.2,177.6-185.4,10.5-4.1,21.8-8.8,33.5-13.1a185.81,185.81,0,0,1,121.2-2.9h0Z" transform="translate(-52.71 -62.03)"/><path class="cls-2" d="M157.5,411.1c36.1,39.5,79.4,85.2,102.8,181.5" transform="translate(-52.71 -62.03)"/><path class="cls-3" d="M140.4,364.3c-3.2,2.2-3.8,10.1-2.7,17.8-4.4-3.7-9.2-6.6-12.7-6.8-9.2-.6-6.6,8.1-0.5,16.1-4.4-.6-8.5-0.4-11.1.8-9.4,4.3-.3,11.8,10.5,15.8-5.4,2.1-10.1,5-12,8-5.5,8.8,6.1,10,17.4,7.4-3.3,4.7-5.8,9.7-5.7,13.3,0.2,10.3,10.6,5,18.6-3.3-0.2,5.7.5,11.3,2.5,14.2,5.8,8.5,11.6-1.6,13.8-12.9,2.9,4.9,6.6,9.2,9.9,10.6,9.5,4,8.9-7.7,4.5-18.4,5.2,2.5,10.5,4.1,14,3.5,10.2-1.9,3.2-11.3-6.3-17.9,5.7-.7,11.1-2.3,13.7-4.8,7.5-7.1-3.5-11.2-15-11.5,4.4-3.7,8-8,8.8-11.5,2.4-10.1-9.1-7.5-18.9-1.4,1.6-5.5,2.3-11.1,1.1-14.4-3.5-9.7-11.7-1.3-16.5,9.1-1.6-5.5-4.1-10.5-7-12.7C144,363.4,141.9,363.2,140.4,364.3Zm8.2,36.2a4.82,4.82,0,0,0,4-1.1,4.78,4.78,0,0,0,3.9,1.3,5.23,5.23,0,0,0,2.5,3.2,4.76,4.76,0,0,0,.4,4.1,4.83,4.83,0,0,0-1.9,3.7,5,5,0,0,0-3.7,2,5,5,0,0,0-4.1-.3,5.3,5.3,0,0,0-3.3-2.5A4.61,4.61,0,0,0,145,407a5,5,0,0,0,1-3.6A4.54,4.54,0,0,0,148.6,400.5Z" transform="translate(-52.71 -62.03)"/><path class="cls-4" d="M139.8,413.5a14.12,14.12,0,1,1,18.7,7A14.13,14.13,0,0,1,139.8,413.5Z" transform="translate(-52.71 -62.03)"/><path class="cls-5" d="M235.6,511.2c-4.1-34.4,16.3-68.5,38.5-70.9-1.5,4.7-10.2,17.9-12.2,20.6,11.6-6.1,14.1-4.3,14.1-4.3s-9.7,17.2-18.3,22.8c10.2,0.9,11.1,2.4,11.1,2.4S247.6,502.1,235.6,511.2Z" transform="translate(-52.71 -62.03)"/><path class="cls-5" d="M206.2,495.4c-23.3-25.6-62.4-32.4-78.8-17.1,4.5,2,20.2,3.9,23.6,4.2-12.2,4.8-12.5,7.9-12.5,7.9s19.4,3.9,29.3,1c-6,8.3-5.4,9.9-5.4,9.9S191.5,498.6,206.2,495.4Z" transform="translate(-52.71 -62.03)"/><path class="cls-6" d="M241,505.6c-0.6-8.4,1.7-28.8,11.1-41.9" transform="translate(-52.71 -62.03)"/><path class="cls-6" d="M165.1,478.6a63.91,63.91,0,0,1,15.8,5.6c8.7,4.4,19,12.1,19,12.1" transform="translate(-52.71 -62.03)"/><path class="cls-7" d="M227.3,817.1c-36.4-79.1,48-147.3,65.3-275,69.1-14.8,161.2-9.8,161.2-9.8s61.8,160.1,78,204.4c32.7,89.4-93.7,121.7-93.7,121.7S263.7,896.2,227.3,817.1Z" transform="translate(-52.71 -62.03)"/><path class="cls-8" d="M337,364.7L321.3,466.2l-61.6,5.6s-0.5-2.6-1-7.1a141.86,141.86,0,0,1,3.1-44.5c6.7-29.7,24.6-67.2,24.6-67.2l15.5,3.6Z" transform="translate(-52.71 -62.03)"/><path class="cls-4" d="M301.9,356.5c-1.2,8.4-4.2,13.5-7,16.6-5.2,6.1-10.7,6.9-12.4,13.3-0.8,3,.2,3.7.6,13.6,0.3,6.4.4,9.6,0,11.6-2.2,10.7-13.1,11.6-14.2,19.3-1.3,9,12.8,14,12.1,21-0.4,3.8-5.1,8.4-22.3,12.7a141.86,141.86,0,0,1,3.1-44.5c6.7-29.7,24.6-67.2,24.6-67.2Z" transform="translate(-52.71 -62.03)"/><path class="cls-4" d="M394.4,274.8c-9.9-4.4-7.3-22.3,6.1-32.2s35-.9,40.5-1.2c31.1-1.5,41.8,27.4,31.6,59.2-3,9.2-27.9,32.5-38.1,26.4s9.8-35.8,1-42.6" transform="translate(-52.71 -62.03)"/><path class="cls-9" d="M445.1,311.6l3.8,32,11.2,14.3s-10.7,14.7-29.5,12.5-24.5-13.9-24.5-13.9l-1.4-41.6Z" transform="translate(-52.71 -62.03)"/><path class="cls-9" d="M459.6,300.7c2.8-20.8-10.6-39.8-29.9-42.3-9.6-1.3-19.2-8.2-26.4-2.3s-12.2,24.9-13.6,35.3c-2.8,20.8,10,38.2,29.3,40.8,10.5,1.4,21.4,3.7,28.9-3.3C454.2,323,458.4,310.3,459.6,300.7Z" transform="translate(-52.71 -62.03)"/><path class="cls-9" d="M399.2,285.7c-4.5,5.5-16.7,15.8-14.7,19.4,2.7,4.7,13-.6,14-1.7" transform="translate(-52.71 -62.03)"/><path class="cls-10" d="M428.6,283.6c-0.4-2.9-4.2-4.8-8.5-4.2s-7.4,3.5-7,6.4,4.2,4.8,8.5,4.2S429,286.5,428.6,283.6Z" transform="translate(-52.71 -62.03)"/><path class="cls-10" d="M399.6,284.1c-0.3-2.7-3.4-4.5-6.7-4s-5.8,3.2-5.4,6,3.4,4.5,6.7,4S399.9,286.9,399.6,284.1Z" transform="translate(-52.71 -62.03)"/><path class="cls-11" d="M444,343.2l1-24.8s-19.7-5.7-24.5,1.2,3.9,26.1,3.9,26.1l14.5,0.2" transform="translate(-52.71 -62.03)"/><path class="cls-4" d="M397.6,253.6c-3,2.2-1.7-5.7-2.9-2-4,11.8,5.4,16.5,14.5,16.4a75.09,75.09,0,0,0,17.4-2.4s14.6,25,28.1,20.1c8.9-3.2,12.8-14.5,7.1-21.3-4.7-5.6-11.1-8.8-18-10.8s-14.9-1.2-21.7-3.6" transform="translate(-52.71 -62.03)"/><path class="cls-4" d="M391.6,257.6c-11.7-27.4,9.5-36.4,19.9-25.2,0.4-16.4,29.8-24.2,35.2,2.7,2.5-4.4,22.1,8.9,0,20.3" transform="translate(-52.71 -62.03)"/><path class="cls-9" d="M452.2,286.3c-1.1.2,3.8-4.7,9.6,2.1,4.1,4.8-.2,18.4-9.6,13.7" transform="translate(-52.71 -62.03)"/><path class="cls-2" d="M457.1,292.6l-0.3.9-0.6,1.3L455,296h0" transform="translate(-52.71 -62.03)"/><path class="cls-4" d="M414.3,285.5a3.59,3.59,0,0,1,3.4-3.8,3.45,3.45,0,0,1,3.7,3.4A3.56,3.56,0,1,1,414.3,285.5Z" transform="translate(-52.71 -62.03)"/><path class="cls-4" d="M388.4,285.9a3.12,3.12,0,0,1,2.6-3.5c1.5-.1,2.9,1.4,3,3.2a3.11,3.11,0,0,1-2.7,3.5C389.8,289.2,388.5,287.7,388.4,285.9Z" transform="translate(-52.71 -62.03)"/><path class="cls-12" d="M398.3,265.8c-3.8-1.1-5.4-5.9-6.8-9.1" transform="translate(-52.71 -62.03)"/><path class="cls-4" d="M429.3,334.2L405.1,328l1,17.6a64.78,64.78,0,0,0,13.5-5.4C425.7,336.7,429.3,334.2,429.3,334.2Z" transform="translate(-52.71 -62.03)"/><path class="cls-8" d="M460.9,350.4s54.6,16.5,63.2,52-28.8,90.2-28.8,90.2l-64.1,87.7L293.6,555s15.3-146.1,30.2-175.7c4.5-9,8.4-25.5,22-32.4,13.1-6.6,35.9-3.8,35.9-3.8l25.7-6.8,7.8,24.7,33.9-19.4Z" transform="translate(-52.71 -62.03)"/><path class="cls-2" d="M413.2,363.5C400.6,410,385.6,456,374.7,503c-4.6,19.9-7.2,40.7-12.5,60.3" transform="translate(-52.71 -62.03)"/><path class="cls-2" d="M452.6,350.4c-10.2,37.7,5.6,34.6-28.6,19.9" transform="translate(-52.71 -62.03)"/><path class="cls-2" d="M390.8,345.1c-6.9,25-19.8,31.9,14,19.1" transform="translate(-52.71 -62.03)"/><path class="cls-2" d="M422.3,303.5C422,314,413,313,413,310" transform="translate(-52.71 -62.03)"/><path class="cls-2" d="M390.4,410.1a3.71,3.71,0,1,0-3.7,3.5A3.65,3.65,0,0,0,390.4,410.1Z" transform="translate(-52.71 -62.03)"/><path class="cls-2" d="M372.6,468.4c0-1.7-1.7-3-3.8-3s-3.8,1.4-3.8,3,1.7,3,3.8,3S372.6,470.1,372.6,468.4Z" transform="translate(-52.71 -62.03)"/><path class="cls-2" d="M358.8,531.6a3.86,3.86,0,0,0-4.1-3.7,3.92,3.92,0,0,0-4.1,3.7,3.86,3.86,0,0,0,4.1,3.7A4,4,0,0,0,358.8,531.6Z" transform="translate(-52.71 -62.03)"/><path class="cls-12" d="M443.8,642.1c23.5,86.1,71.6,106.6-7.9,150.6-13.4,7.4-50.1,31.4-63.5,38.8" transform="translate(-52.71 -62.03)"/><path class="cls-12" d="M396.5,683.6c48.6,85.3,26.6,95.7-76.3,148.6" transform="translate(-52.71 -62.03)"/><path class="cls-4" d="M454.3,573.4s5.8-63.9-37.8-91.2-69.7-78.5-69.7-78.5-58.7,60.9-78.3,89.4-26.8,101.5-26.8,101.5,31,18,38.6,37.9c7.5,19.6-.6,44.6-11.9,55.2L240.9,699s-9.4,83.9,22,133.7,79.3,70.3,171,36.3c81.4-30.2,43.3-195.1,43.3-195.1s-32.7-6.3-42.3-32.5C415.5,589.2,454.3,573.4,454.3,573.4Z" transform="translate(-52.71 -62.03)"/><path class="cls-4" d="M472.9,571.3s5.8-63.9-37.8-91.2-83.7-70.2-83.7-70.2-44.7,52.5-64.3,81.1-26.8,101.5-26.8,101.5,31,18,38.6,37.9c7.5,19.6-.6,44.6-11.9,55.2l-27.5,11.2s2.6,83.2,34,133,67.3,71,159,37c81.4-30.2,43.3-195.1,43.3-195.1s-32.7-6.3-42.3-32.5C434.2,587,472.9,571.3,472.9,571.3Z" transform="translate(-52.71 -62.03)"/><path class="cls-12" d="M414.5,783l-4.1-33.7-41.8,4.6,2.9,38.3Z" transform="translate(-52.71 -62.03)"/><path class="cls-12" d="M347.5,691c-3.4-10.1-19.8-8.4-22.3,1.7-3.9,15.4,27.6,87.4-8.3,86.2" transform="translate(-52.71 -62.03)"/><path class="cls-12" d="M434.9,676.4c10.4-10.2,14,16.7,14.3,18.9,2.6,17-4.3,34.1.9,51.4,1,3.2,4,13.7,9.3,13.2" transform="translate(-52.71 -62.03)"/><path class="cls-12" d="M350.5,412.5c0.2-2.2-10.2,12.9-12.7,15.4-11.6,11.6-19.4,25.4-29.7,37.9C279,501.1,261.8,548.9,258.2,594" transform="translate(-52.71 -62.03)"/><path class="cls-12" d="M258.3,594c15.2,10.2,40.3,28.8,41.8,52.5,1.1,18-17.9,52-40.4,44.4" transform="translate(-52.71 -62.03)"/><path class="cls-12" d="M259.7,690.9s2.2,54.1,4.5,68.9c8.3,54.1,27.7,85.4,70.3,111.7a76,76,0,0,0,48,10.7" transform="translate(-52.71 -62.03)"/><path class="cls-4" d="M406.9,742.4L352.1,200s-1-32-14.3-39-7.6-10.6-7.6-10.6,32.5-25.3,10.5-38.3-35.2-5.1-39.6,7.1-1.5,28.9-1.5,28.9l-18.7,5.8,4.1,14.6,18.3-5.8,3.2,13.3-22,10.1L292,206l22.4-9.7,57,553.9Z" transform="translate(-52.71 -62.03)"/><path class="cls-12" d="M338.1,426.7L341,454" transform="translate(-52.71 -62.03)"/><path class="cls-12" d="M398.2,748.8l-48.5-474L344.5,224" transform="translate(-52.71 -62.03)"/><path class="cls-12" d="M390,751L339.1,275.1,334,225.2" transform="translate(-52.71 -62.03)"/><path class="cls-12" d="M380,753L328.7,274.8l-5-49" transform="translate(-52.71 -62.03)"/><path class="cls-12" d="M321.9,139.6c-21.4,14.8,8.6,45.8,13,61,2,6.8.7,12.9-1,19.5" transform="translate(-52.71 -62.03)"/><path class="cls-9" d="M438.7,624.9l-26.2,18.2L411.3,663l-13.6.2s1.9,8.3-2.4,8-9.8-7.4-9.8-7.4a7.87,7.87,0,0,1-7.7,4.4c-5.6-.4-8.3-10.5-8.3-10.5l2-20.9s-6.1,9.6-8.5,4.9,5.7-22.4,5.7-22.4l41.6-32.4Z" transform="translate(-52.71 -62.03)"/><path class="cls-8" d="M523.7,545.1c-14.7,38-88.6,86-88.6,86L410.8,608l-14.5-13.8S444.1,530.1,447,519s1.1-70.2,1.1-70.2L486,411.2l38.1-8.6C524.2,402.5,538.4,507,523.7,545.1Z" transform="translate(-52.71 -62.03)"/><path class="cls-2" d="M399.3,650.2c-1.1,3.7-1.1,7.7-1.2,11.6" transform="translate(-52.71 -62.03)"/><path class="cls-2" d="M389.7,648.8c-2.5,3.9-3.9,11.3-3.1,15.7" transform="translate(-52.71 -62.03)"/><path class="cls-2" d="M379,645.2c-2.2,5.9-3.5,15.3-1.5,21.5" transform="translate(-52.71 -62.03)"/><path class="cls-2" d="M378.8,627.8c-2.6,3.5-5.3,6.8-8,10.2" transform="translate(-52.71 -62.03)"/><path class="cls-9" d="M287.4,354.5c6.7-13.8,32.9-51.5,41.2-49.5s37.9,17.9,33.4,24.7c-2.5,3.8-28.1-13.3-28.1-12.6,0,2,31.8,15,26.9,24.8-1.8,3.6-29.7-14.6-32.4-15.4s24.9,20.6,21.1,22.9-21.3-8.4-21.3-8.4-2.1,23.9-4.2,26C322.4,368.7,286.2,356.9,287.4,354.5Z" transform="translate(-52.71 -62.03)"/><path class="cls-2" d="M252,707.2c-0.8,9.2-12.1,46.9-14.1,56.5-6.3,30.2,16.9,66.5,40.2,69.1" transform="translate(-52.71 -62.03)"/><path class="cls-13" d="M129.9,569.8c-26.6,20.5-27.6-35.8-12.7-48.8,14.2-12.4,28.4,4.8,29.1,18.8C147,553.2,139.6,562.3,129.9,569.8Z" transform="translate(-52.71 -62.03)"/><path class="cls-14" d="M165.4,689.8c11.9-4-5.6-42.7,9.2-41.4,17.5,1.5,21,48.6,7.6,57.7C174.1,711.6,152,694.3,165.4,689.8Z" transform="translate(-52.71 -62.03)"/><path class="cls-15" d="M329.7,385.6c0,20-.7,34-7.7,41.1s-17.5,4.6-17.5-15.3,5.6-29.4,12.6-36.5S329.7,365.6,329.7,385.6Z" transform="translate(-52.71 -62.03)"/><path class="cls-4" d="M518.8,430a32.49,32.49,0,0,0-6.4,16.9,247.13,247.13,0,0,0,.3,41.1c1.6,18.1-29,12.9-37.9,32.6-7,15.4,4.2,24.2-3.6,37.3-8,13.6-22.1,7.7-40,22.4-7.3,6-16.1,16.1-20.3,27.6L435.2,631s73.9-48,88.6-86c10.6-27.4,6.1-89.3,2.8-121.8A23.15,23.15,0,0,0,518.8,430Z" transform="translate(-52.71 -62.03)"/><path class="cls-15" d="M473,460.5c-16,0-25.7-10.1-26.3-11.2-7-11.7-7.5-34.1,1.2-44.2,6.4-7.4,17.5-7.9,39.7-8.9,8.9-.4,25-1.2,28.2-0.1,20.3,7-9.2,28.4-9.8,30.6C502.8,438.5,492,460.6,473,460.5Z" transform="translate(-52.71 -62.03)"/><path class="cls-4" d="M466.4,545.3c1,5.5-15.2,14.8-18.7,11.8-1.6-1.4-.3-5.2.2-6.9,0.4-1.1,2.7-8.4,9.2-9.2C461,540.6,465.9,542.5,466.4,545.3Z" transform="translate(-52.71 -62.03)"/><path class="cls-4" d="M141.2,174.2a36,36,0,0,0-24.1-3.1,38.38,38.38,0,0,0-11.7,4.8c-0.2-2-.5-4-0.7-6-0.5-3.8-.8-7.7-1.2-11.7a93.79,93.79,0,0,0,10.4-10.5c7.9-8.9,13.8-19.9,15.6-31.8s3.1-23.8-.3-34.7c-0.7-2.8-1.8-4.7-3.4-8.4a31.41,31.41,0,0,0-3.3-6,9.44,9.44,0,0,0-7.7-3.7c-6.5.7-9.6,4.5-11.7,7.2a50.59,50.59,0,0,0-2.6,4.4c-0.4.8-.6,1.4-0.9,2l-0.2.5a4.08,4.08,0,0,0-.2.7L98.9,79C97,85,97,90.7,97.1,96.1s0.1,10.5.2,15.7c-0.2,8.2.1,16.3,0.6,24.2a115.25,115.25,0,0,1-9.2,9.3l-5.9,5.3c-1.9,1.7-4,3.7-6.2,5.9a84.78,84.78,0,0,0-19.4,29.3c-4.5,11.1-4.8,24.7.5,35.7,5.1,11,14.5,18.8,24.3,23.2a71,71,0,0,0,29.7,5.9c0.7,5.2,1.4,10.2,1.9,14.9,2.5,12.6-2.4,23.5-10.3,27a15.54,15.54,0,0,1-14.8-1.8,5,5,0,0,0,1.2.2A10.48,10.48,0,1,0,80,279.7v1.4h0v0.1a9.86,9.86,0,0,0,2.3,5.9c0.3,0.5.7,1,1.1,1.6a19.69,19.69,0,0,0,7.7,6,20,20,0,0,0,13.2.9,19.49,19.49,0,0,0,12.4-11.2,22.31,22.31,0,0,0,2.2-9.3,81.41,81.41,0,0,0-.6-10c-0.5-4.7-1.2-9.6-1.9-14.7a66,66,0,0,0,24.8-7.3c8.5-4.9,15.3-12.7,18.1-21.8a40.26,40.26,0,0,0-.8-27.4A37.12,37.12,0,0,0,141.2,174.2Zm-34-84.4c1.7-4.1,5.2-15.4,11.6-13.1,4,1.5,4.3,7.1,4.1,10.6a51.9,51.9,0,0,1-7.4,23.9A214.42,214.42,0,0,1,102.1,131c-0.1-6.3-.1-12.5.2-18.9A66.15,66.15,0,0,1,107.2,89.8ZM86,237.3c-8-4.7-14.8-11.6-17.8-20s-1.8-17.4,2.3-25.6,11-15.4,18.4-21.8c1.8-1.5,3.6-3.1,5.9-4.8l3-2.3c0.7-.6,1.5-1.1,2.2-1.7,0.3,3.1.6,6.2,0.9,9.2,0.3,2.7.6,5.3,0.9,8a36,36,0,0,0-11.8,41,29.35,29.35,0,0,0,2.4,5.4,18.49,18.49,0,0,0,1,1.8,54.4,54.4,0,0,1-.9-7.7c-0.2-4.9,0-12.3,4-19.8a29,29,0,0,1,6.8-8.8c1.4,11.1,2.8,21.8,4.2,31.9,1,7.8,2.2,15.4,3.2,22.5A55,55,0,0,1,86,237.3ZM153.7,220a28,28,0,0,1-14.8,19.1,53.34,53.34,0,0,1-23.2,5.7c-1.1-7.4-2.3-15.2-3.6-23.3-1.7-10.8-3.5-22.2-5.1-34.1a31.17,31.17,0,0,1,12.4-5c10.7-1.6,23.3,3.3,30.4,15.8A33.46,33.46,0,0,1,153.7,220Z" transform="translate(-52.71 -62.03)"/><path class="cls-4" d="M237.8,189.5c-6.8,1.9-11.1,7.4-9.5,12.2h0l-7.8,59.9a1.11,1.11,0,0,0,1,1.2h0.1a1.2,1.2,0,0,0,1.2-.9v-0.2c0.9-2.2,2.3-4.1,9.7-7.4l1.3-.6c5.8-2.5,16.5-7.1,14-16.6a1.23,1.23,0,0,0-1.4-.8,1,1,0,0,0-.8,1.3c2,7.8-7.2,11.8-12.8,14.2l-1.4.6c-4.1,1.8-6.5,3.3-8.1,4.8l6.8-52.4c2.8,2.7,8,3.8,13.2,2.3,6.8-1.9,11.1-7.4,9.5-12.2C251.4,189.9,244.6,187.6,237.8,189.5Z" transform="translate(-52.71 -62.03)"/><path class="cls-4" d="M151.2,283.4H152l-9.4,41.8a11.88,11.88,0,0,0-10-2.2c-5.9,1.2-10,5.7-9.1,10.1s6.4,7.1,12.3,5.9,10-5.7,9.1-10.1a1.06,1.06,0,0,0-.2-0.5l8.8-39,43.6-.3L189,325c-2.3-2.1-6.1-3.1-10.1-2.3-5.9,1.2-10,5.7-9.1,10.1s6.4,7.1,12.3,5.9,10-5.7,9.1-10.1c0-.1-0.1-0.2-0.1-0.3l10.3-45.4h0.8l2.7-12.1-50.7.1Zm46.5,2.9-43.6.3,0.7-3.3,43.7-.5Z" transform="translate(-52.71 -62.03)"/><path class="cls-2" d="M457.8,472c-0.2,11.4-.1,22.8.4,34.2" transform="translate(-52.71 -62.03)"/><path class="cls-2" d="M464.8,486.6a166.78,166.78,0,0,1-.5,24.5c-0.5,5.6-1.4,11.4-4.5,16.2a56.88,56.88,0,0,1-6,7c-5.6,6.2-10,13.4-14.3,20.5" transform="translate(-52.71 -62.03)"/><path class="cls-2" d="M445.1,531.7a253.51,253.51,0,0,1-28.9,40.1" transform="translate(-52.71 -62.03)"/><path class="cls-2" d="M471.2,363.3c2.2,2.3,22.8,11.7,34,22.5" transform="translate(-52.71 -62.03)"/><path class="cls-2" d="M479.8,378c2.5,1.6,4.9,3.2,7.4,4.8,5.1,3.3,10.2,6.7,13.9,11.5,5.5,7.2,7.1,16.6,7.1,25.7,0,5.1-.1,11,3.9,14" transform="translate(-52.71 -62.03)"/><path class="cls-2" d="M402.9,424.9c-4.2,11.8-7.9,23.8-11,35.9" transform="translate(-52.71 -62.03)"/><path class="cls-2" d="M325.6,380c0.7,6.1,1.1,12.3,1.2,18.5a22.71,22.71,0,0,1-1.2,8.6c-2.1,4.6-7.1,7.5-8.8,12.3" transform="translate(-52.71 -62.03)"/><path class="cls-2" d="M331.5,409.7a104.5,104.5,0,0,1-15.6,21.8" transform="translate(-52.71 -62.03)"/><path class="cls-2" d="M474.4,610.5c2,5.3,4.1,10.6,6.1,15.9,1.4,3.6,3,7.5,6.3,9.6" transform="translate(-52.71 -62.03)"/><line class="cls-2" x1="416.29" y1="554.97" x2="438.19" y2="601.17"/><path class="cls-2" d="M272.9,656.1a96.83,96.83,0,0,0-9.5,22.5" transform="translate(-52.71 -62.03)"/><path class="cls-2" d="M229.6,749.1l1.8,59.3-6-21.3" transform="translate(-52.71 -62.03)"/><circle class="cls-16" cx="380.79" cy="232.47" r="4.5"/></svg>